<svg width="128" height="128" viewBox="0 0 128 128" fill="none" xmlns="http://www.w3.org/2000/svg">
<path d="M124.833 95.8315L115.628 86.5846C115.584 86.5412 115.497 86.4978 115.454 86.4544C115.438 86.4203 115.413 86.3906 115.383 86.3679C115.353 86.3453 115.317 86.3302 115.28 86.3241L109.115 80.1161L93.8741 64.8783L122.922 35.7917C123.94 34.7874 124.748 33.591 125.299 32.2719C125.851 30.9528 126.135 29.5374 126.135 28.1077C126.135 26.678 125.851 25.2625 125.299 23.9435C124.748 22.6244 123.94 21.428 122.922 20.4236L107.595 5.09896C105.529 3.11446 102.775 2.00618 99.9095 2.00618C97.0443 2.00618 94.2903 3.11446 92.2241 5.09896L70.7311 26.5882L63.176 34.1855L45.2869 16.2994L44.4619 15.6048L43.8975 15.3878L18.2796 5.53309L4.34169 0.149912C3.95333 -0.00360499 3.52854 -0.0401914 3.11965 0.0446594C2.71075 0.12951 2.33561 0.332092 2.04042 0.627451C1.73861 0.927582 1.52914 1.30789 1.4368 1.72336C1.34445 2.13883 1.37311 2.57205 1.51938 2.97174L6.86006 16.8204V16.8638L6.99032 17.1243L16.7599 42.5207C16.8991 43.073 17.2203 43.5624 17.6717 43.9099L35.5608 61.796L25.0097 72.3452C24.8981 72.4193 24.796 72.5068 24.7057 72.6057L15.8046 81.5487C15.6929 81.6226 15.5908 81.7101 15.5007 81.8092L6.25218 91.0561C6.15317 91.1463 6.06567 91.2484 5.99166 91.36L3.21277 94.095C2.19508 95.0993 1.38703 96.2958 0.835515 97.6148C0.283999 98.9339 0 100.349 0 101.779C0 103.209 0.283999 104.624 0.835515 105.943C1.38703 107.262 2.19508 108.459 3.21277 109.463L18.5401 124.788C19.5446 125.805 20.7412 126.613 22.0605 127.165C23.3798 127.716 24.7955 128 26.2255 128C27.6554 128 29.0711 127.716 30.3904 127.165C31.7097 126.613 32.9063 125.805 33.9108 124.788L66.2588 92.4887L87.8387 114.065C87.8821 114.108 87.9255 114.195 87.9689 114.238L97.2174 123.442C98.2151 124.454 99.4053 125.255 100.718 125.799C102.03 126.344 103.438 126.62 104.859 126.611C106.286 126.616 107.7 126.339 109.019 125.795C110.338 125.251 111.536 124.451 112.545 123.442L124.833 111.156C126.861 109.122 128 106.366 128 103.494C128 100.621 126.861 97.8659 124.833 95.8315ZM72.2942 31.19L76.8968 35.7917C77.3146 36.1446 77.8502 36.3268 78.3966 36.3019C78.9429 36.277 79.4597 36.0469 79.8437 35.6575C80.2277 35.2681 80.4505 34.7481 80.4677 34.2016C80.4848 33.655 80.295 33.1221 79.9362 32.7094L75.3337 28.1077L81.4993 21.9865L86.1018 26.5882C86.5141 26.9745 87.0566 27.1915 87.6216 27.196C88.1995 27.1918 88.7558 26.9755 89.1847 26.5882C89.5822 26.1736 89.8042 25.6215 89.8042 25.0471C89.8042 24.4727 89.5822 23.9206 89.1847 23.5059L84.5387 18.9042L90.7044 12.7396L101.429 23.5059C101.634 23.7123 101.877 23.8761 102.146 23.9878C102.414 24.0996 102.702 24.1571 102.992 24.1571C103.276 24.1567 103.558 24.0988 103.819 23.9869C104.08 23.875 104.316 23.7114 104.512 23.5059C104.715 23.3042 104.877 23.0641 104.987 22.7996C105.097 22.5351 105.154 22.2513 105.154 21.9648C105.154 21.6782 105.097 21.3945 104.987 21.13C104.877 20.8655 104.715 20.6254 104.512 20.4236L93.7872 9.70071L95.3069 8.13785C96.5281 6.91838 98.1835 6.23342 99.9095 6.23342C101.635 6.23342 103.291 6.91838 104.512 8.13785L119.883 23.5059C121.102 24.7269 121.787 26.382 121.787 28.1077C121.787 29.8334 121.102 31.4885 119.883 32.7094L90.7912 61.796L66.2154 37.2244L72.2942 31.19ZM61.2221 38.3531C61.281 38.5356 61.3857 38.7 61.526 38.8306L61.5695 38.874L63.0892 40.3935L73.8139 51.1164C73.9446 51.2568 74.109 51.3614 74.2916 51.4203L87.7518 64.8783L89.2715 66.3977L90.7912 67.9171L104.555 81.679L101.473 84.7179L87.7518 70.9994H87.7084L86.1887 69.48V69.4366L84.669 67.9606V67.9171L60.0932 43.389V43.3456L58.5735 41.8695V41.8261L57.0538 40.3067H57.0103L47.5447 30.8427V30.7993C46.323 29.5792 45.6358 27.924 45.6343 26.1975V22.7679L60.0932 37.2244L61.2221 38.3531ZM89.1847 97.0037L75.4639 83.2852H75.4205L73.9008 81.7658V81.7224L72.3811 80.2463V80.2029L47.8053 55.6748V55.6313L46.2856 54.1553V54.1119L44.7659 52.5925H44.7224L35.2568 43.0851L35.1266 42.9548C33.9924 41.7409 33.3569 40.1445 33.3464 38.4833V34.1421C33.3464 33.5664 33.5751 33.0143 33.9822 32.6072C34.3894 32.2001 34.9416 31.9714 35.5174 31.9714H39.8594C41.5027 31.9664 43.0863 32.5874 44.2882 33.7079L44.4619 33.8816L53.9709 43.389L55.4906 44.9084L55.4038 44.9952L56.9235 46.5147L57.0103 46.4279L81.5861 70.9994L83.1059 72.5189L84.669 74.0817L98.3898 87.8002L89.1847 97.0037ZM14.6323 8.78904C13.5785 10.6752 12.0131 12.2252 10.1166 13.2605L7.33768 5.96721L14.6323 8.78904ZM18.7572 10.3519L41.2922 19.0344V26.1975C41.2924 26.7212 41.336 27.2439 41.4225 27.7604C40.906 27.6739 40.3831 27.6303 39.8594 27.6302H35.5174C33.79 27.6302 32.1334 28.3162 30.912 29.5374C29.6905 30.7587 29.0043 32.415 29.0043 34.1421V38.4833C29.0045 39.007 29.0481 39.5297 29.1346 40.0462C28.6181 39.9597 28.0952 39.9161 27.5715 39.9159H20.4072L11.7231 17.3413C14.7361 15.7973 17.1943 13.3548 18.7572 10.3519ZM30.828 121.749C29.5816 122.92 27.9357 123.572 26.2255 123.572C24.5152 123.572 22.8693 122.92 21.6229 121.749L6.25218 106.381C5.0325 105.16 4.34742 103.505 4.34742 101.779C4.34742 100.053 5.0325 98.3983 6.25218 97.1773L7.81531 95.6579L18.5401 106.381C18.7404 106.587 18.98 106.751 19.2448 106.863C19.5095 106.975 19.7941 107.032 20.0815 107.032C20.3689 107.032 20.6535 106.975 20.9182 106.863C21.183 106.751 21.4226 106.587 21.6229 106.381C22.0204 105.966 22.2424 105.414 22.2424 104.84C22.2424 104.265 22.0204 103.713 21.6229 103.298L10.8547 92.5756L17.0204 86.411L21.6229 91.0561C22.0352 91.4423 22.5777 91.6593 23.1426 91.6639C23.7206 91.6597 24.2768 91.4434 24.7057 91.0561C25.1033 90.6415 25.3252 90.0893 25.3252 89.515C25.3252 88.9406 25.1033 88.3884 24.7057 87.9738L20.1032 83.3721L26.2255 77.2075L30.828 81.8092C31.2288 82.2182 31.7751 82.4522 32.3477 82.4604C32.6383 82.4604 32.9261 82.4029 33.1944 82.2911C33.4627 82.1793 33.7062 82.0155 33.9108 81.8092C34.3086 81.4035 34.5314 80.8579 34.5314 80.2898C34.5314 79.7216 34.3086 79.1761 33.9108 78.7703L29.3083 74.1686L38.6002 64.8348L63.176 89.4064L30.828 121.749ZM67.7785 87.887L66.2588 86.3675L41.683 61.796L40.1633 60.2765L38.6002 58.7136L24.1413 44.2572H27.5715C29.2983 44.2587 30.9538 44.9458 32.174 46.1674L41.683 55.6748L42.812 56.8035C42.8707 56.9861 42.9754 57.1505 43.1159 57.281L44.6356 58.8005L49.2381 63.4022C49.3688 63.5426 49.5332 63.6472 49.7158 63.7061L69.2982 83.2852L70.818 84.8047L72.3811 86.3675L86.1018 100.086L83.0624 103.168L69.2982 89.4064L67.7785 87.887ZM86.1018 106.207L90.5741 101.692L90.7912 101.475L102.862 89.4064L103.079 89.1894L107.595 84.7179L111.025 88.1475L89.532 109.637L86.1018 106.207ZM121.75 108.074L109.462 120.36C108.86 120.968 108.143 121.451 107.353 121.781C106.563 122.111 105.715 122.28 104.859 122.28C104.003 122.28 103.156 122.111 102.366 121.781C101.576 121.451 100.859 120.968 100.257 120.36L92.5715 112.676L114.064 91.1864L121.75 98.8704C122.358 99.4723 122.842 100.189 123.171 100.979C123.501 101.769 123.671 102.616 123.671 103.472C123.671 104.328 123.501 105.176 123.171 105.965C122.842 106.755 122.358 107.472 121.75 108.074Z" fill="#0022FF"/>
</svg>
