<svg width="128" height="128" viewBox="0 0 128 128" fill="none" xmlns="http://www.w3.org/2000/svg">
<g clip-path="url(#clip0_173_7)">
<path d="M13.2261 47.311C14.0059 47.3334 14.7778 47.1499 15.4641 46.779C20.4311 43.956 21.2691 39.769 21.3491 39.302C21.5071 38.368 21.2261 37.283 21.9841 36.496C22.5194 36.0375 23.1743 35.7409 23.8721 35.641C26.4257 37.1577 28.8398 38.8978 31.0861 40.841C31.8374 41.457 32.7848 41.7829 33.7561 41.7596C34.7274 41.7363 35.6581 41.3653 36.3791 40.714L50.6251 57.08C51.6552 56.2427 52.9349 55.7723 54.2621 55.743L54.5321 55.476L39.2881 37.964L41.8321 35.552L58.3001 51.766L61.1501 48.959L44.7101 32.771C45.2818 32.1054 45.6181 31.2699 45.6669 30.3938C45.7157 29.5177 45.4743 28.65 44.9801 27.925C42.8853 24.8922 41.2082 21.5912 39.9941 18.111C42.0351 16.5409 44.5584 15.7289 47.1321 15.814C50.3162 15.9065 53.4439 16.6777 56.3061 18.076C57.175 18.5248 58.1771 18.6434 59.1268 18.4099C60.0765 18.1764 60.9094 17.6066 61.4711 16.806C62.0273 16.0005 62.2685 15.0189 62.1486 14.0473C62.0288 13.0758 61.5564 12.1821 60.8211 11.536C54.3691 5.873 47.7091 3 41.0261 3C35.2487 3.03111 29.689 5.20759 25.4261 9.107L14.7441 19.234C14.3288 19.6275 14.0027 20.1056 13.788 20.6359C13.5732 21.1662 13.4747 21.7364 13.4991 22.308C13.6322 23.2054 13.4039 24.1189 12.8641 24.848C12.3994 25.2219 11.8642 25.4984 11.2903 25.6611C10.7165 25.8238 10.1158 25.8693 9.52406 25.795C9.27554 25.7983 9.02809 25.8284 8.78606 25.885C3.87006 26.906 0.930065 31.4 0.610065 31.91C0.309326 32.3898 0.113877 32.9279 0.036647 33.4889C-0.040583 34.0498 0.0021655 34.6208 0.162065 35.164C3.56406 46.725 11.6401 47.311 13.2261 47.311ZM9.59806 29.802C9.59806 29.802 9.70506 29.809 9.89406 29.809C11.3641 29.809 17.8041 29.396 17.4941 22.137L28.2041 11.987C31.7117 8.79206 36.2815 7.01468 41.0261 7C45.7841 7 51.6361 8.795 58.1811 14.543C54.7422 12.8356 50.9704 11.904 47.1321 11.814C44.9352 11.7535 42.7521 12.1782 40.7382 13.058C38.7243 13.9378 36.9293 15.251 35.4811 16.904C36.7259 21.6696 38.8264 26.1694 41.6801 30.184L33.6641 37.783C33.6641 37.783 27.1341 32.276 24.3741 31.551C24.3741 31.551 17.0991 31.762 17.4041 38.634C17.4041 38.634 16.9471 41.335 13.4881 43.302C13.4881 43.302 13.3941 43.312 13.2261 43.312C11.9761 43.312 6.57606 42.79 4.00006 34.034C4.00006 34.034 6.21206 30.504 9.59806 29.802Z" fill="#0022FF"/>
<path d="M33.3441 31.3548C34.4469 31.2912 35.2893 30.3457 35.2257 29.243C35.1621 28.1403 34.2166 27.2979 33.1139 27.3614C32.0111 27.425 31.1687 28.3705 31.2323 29.4732C31.2959 30.576 32.2414 31.4184 33.3441 31.3548Z" fill="#0022FF"/>
<path d="M77.655 62.8501L75.025 65.8711L110.062 99.8891L100.764 108.806L69.421 74.7691C69.319 74.9011 66.719 77.7391 66.719 77.7391L107.282 121.789C108.195 122.793 109.305 123.597 110.544 124.149C111.783 124.702 113.123 124.992 114.48 125C116.87 125.006 119.175 124.118 120.943 122.51L122.886 120.75C123.845 119.892 124.616 118.845 125.153 117.675C125.69 116.506 125.981 115.238 126.007 113.952C126.033 112.665 125.793 111.387 125.304 110.197C124.815 109.006 124.086 107.93 123.163 107.033L77.655 62.8501ZM120.2 117.786L118.258 119.544C117.134 120.54 115.662 121.052 114.163 120.97C112.663 120.888 111.256 120.217 110.248 119.104L103.473 111.748L112.933 102.677L120.369 109.896C120.892 110.417 121.304 111.038 121.58 111.722C121.856 112.406 121.99 113.14 121.974 113.877C121.958 114.615 121.793 115.342 121.488 116.014C121.183 116.686 120.745 117.289 120.2 117.786Z" fill="#0022FF"/>
<path d="M127.39 31.91C127.07 31.4 124.13 26.905 119.215 25.886C118.964 25.8289 118.707 25.7987 118.449 25.796C117.263 25.9291 116.073 25.5883 115.137 24.848C114.597 24.1189 114.369 23.2054 114.502 22.308C114.526 21.7364 114.428 21.1662 114.213 20.6359C113.998 20.1056 113.672 19.6275 113.257 19.234L102.573 9.107C98.3105 5.20814 92.7516 3.0317 86.975 3C80.29 3 73.63 5.872 67.179 11.537C66.4414 12.1848 65.9678 13.0812 65.8483 14.0555C65.7288 15.0299 65.9718 16.0142 66.531 16.821C67.0962 17.6207 67.9325 18.1881 68.8845 18.4176C69.8365 18.6472 70.8395 18.5233 71.707 18.069C74.5657 16.6748 77.6888 15.906 80.868 15.814C83.442 15.7288 85.9656 16.5408 88.007 18.111C86.7924 21.5912 85.115 24.8922 83.02 27.925C82.5258 28.65 82.2844 29.5177 82.3332 30.3938C82.382 31.2699 82.7183 32.1054 83.29 32.771L55.517 60.12C55.1376 59.8472 54.6745 59.7162 54.2084 59.75C53.7424 59.7838 53.303 59.9803 52.967 60.305L4.83 107.04C3.91073 107.938 3.18546 109.015 2.69905 110.205C2.21263 111.395 1.9754 112.672 2.00202 113.957C2.02863 115.241 2.31854 116.507 2.8538 117.676C3.38907 118.844 4.15832 119.891 5.114 120.75L7.056 122.51C8.96792 124.202 11.4672 125.077 14.0171 124.947C16.5671 124.817 18.9643 123.692 20.694 121.814L66.156 72.444C66.4786 72.0953 66.6656 71.6425 66.6832 71.1678C66.7008 70.693 66.5479 70.2277 66.252 69.856L91.62 40.714C92.3345 41.378 93.2673 41.7575 94.2424 41.7809C95.2175 41.8043 96.1675 41.47 96.913 40.841C99.1702 38.8845 101.6 37.1367 104.173 35.619C104.524 35.6303 104.869 35.7148 105.185 35.8669C105.502 36.019 105.783 36.2354 106.012 36.5024C106.24 36.7694 106.41 37.081 106.511 37.4174C106.612 37.7537 106.641 38.1075 106.598 38.456C106.585 38.739 106.603 39.0226 106.65 39.302C106.73 39.77 107.568 43.956 112.535 46.779C113.221 47.1496 113.993 47.3331 114.773 47.311C116.358 47.311 124.435 46.725 127.836 35.163C127.996 34.6198 128.039 34.0488 127.961 33.4879C127.884 32.9269 127.689 32.3888 127.388 31.909L127.39 31.91ZM27.236 108.805L17.936 99.888L54.406 64.48L61.847 71.218L27.236 108.805ZM58.502 62.792L86.167 35.55L88.712 37.962L63.308 67.145L58.502 62.792ZM17.729 119.13C17.2319 119.682 16.6309 120.13 15.9604 120.45C15.2899 120.769 14.563 120.954 13.8213 120.992C13.0795 121.031 12.3375 120.922 11.6375 120.674C10.9376 120.425 10.2935 120.042 9.742 119.544L7.799 117.786C7.24809 117.293 6.8043 116.692 6.4951 116.021C6.18591 115.349 6.0179 114.621 6.0015 113.882C5.98509 113.143 6.12063 112.408 6.39972 111.724C6.67882 111.039 7.09551 110.419 7.624 109.902L15.066 102.677L24.526 111.749L17.729 119.13ZM114.774 43.311C114.606 43.311 114.512 43.301 114.512 43.301C111.052 41.335 110.595 38.634 110.595 38.634C110.901 31.762 103.627 31.551 103.627 31.551C100.867 32.276 94.337 37.783 94.337 37.783L86.32 30.184C89.174 26.1694 91.2748 21.6697 92.52 16.904C91.0716 15.2509 89.2764 13.9377 87.2624 13.0579C85.2483 12.1781 83.065 11.7534 80.868 11.814C77.0293 11.9037 73.2571 12.8353 69.818 14.543C76.365 8.795 82.217 6.999 86.976 7C91.7205 7.01487 96.2903 8.79223 99.798 11.987L110.506 22.137C110.197 29.396 116.636 29.809 118.107 29.809C118.297 29.809 118.404 29.802 118.404 29.802C121.789 30.505 124.001 34.034 124.001 34.034C121.425 42.79 116.023 43.311 114.774 43.311Z" fill="#0022FF"/>
<path d="M96.7667 29.4723C96.8303 28.3696 95.9879 27.4241 94.8851 27.3605C93.7824 27.2969 92.8369 28.1393 92.7733 29.2421C92.7097 30.3448 93.5521 31.2903 94.6549 31.3539C95.7576 31.4175 96.7031 30.5751 96.7667 29.4723Z" fill="#0022FF"/>
</g>
<defs>
<clipPath id="clip0_173_7">
<rect width="128" height="128" fill="white"/>
</clipPath>
</defs>
</svg>
